  0
SECTION
  2
HEADER
  9
$ACADVER
  1
AC1015
  9
$ACADMAINTVER
 70
     6
  9
$DWGCODEPAGE
  3
ANSI_1252
  9
$INSBASE
 10
0.0
 20
0.0
 30
0.0
  9
$EXTMIN
 10
0.0
 20
0.0
 30
0.0
  9
$EXTMAX
 10
279.4
 20
215.9
 30
0.0
  9
$LIMMIN
 10
0.0
 20
0.0
  9
$LIMMAX
 10
279.4
 20
215.9
  9
$ORTHOMODE
 70
     0
  9
$REGENMODE
 70
     1
  9
$FILLMODE
 70
     1
  9
$QTEXTMODE
 70
     0
  9
$MIRRTEXT
 70
     1
  9
$LTSCALE
 40
1.0
  9
$ATTMODE
 70
     1
  9
$TEXTSIZE
 40
3.5
  9
$TRACEWID
 40
1.0
  9
$TEXTSTYLE
  7
Standard
  9
$CLAYER
  8
0
  9
$CELTYPE
  6
ByLayer
  9
$CECOLOR
 62
   256
  9
$CELTSCALE
 40
1.0
  9
$DISPSILH
 70
     0
  9
$DIMSCALE
 40
1.0
  9
$DIMASZ
 40
6.0
  9
$DIMEXO
 40
1.0
  9
$DIMDLI
 40
3.75
  9
$DIMRND
 40
0.0
  9
$DIMDLE
 40
0.0
  9
$DIMEXE
 40
1.0
  9
$DIMTP
 40
0.0
  9
$DIMTM
 40
0.0
  9
$DIMTXT
 40
3.5
  9
$DIMCEN
 40
2.5
  9
$DIMTSZ
 40
0.0
  9
$DIMTOL
 70
     0
  9
$DIMLIM
 70
     0
  9
$DIMTIH
 70
     1
  9
$DIMTOH
 70
     1
  9
$DIMSE1
 70
     0
  9
$DIMSE2
 70
     0
  9
$DIMTAD
 70
     1
  9
$DIMZIN
 70
     0
  9
$DIMBLK
  1

  9
$DIMASO
 70
     1
  9
$DIMSHO
 70
     1
  9
$DIMPOST
  1

  9
$DIMAPOST
  1

  9
$DIMALT
 70
     0
  9
$DIMALTD
 70
     3
  9
$DIMALTF
 40
0.0393700787
  9
$DIMLFAC
 40
2.0
  9
$DIMTOFL
 70
     1
  9
$DIMTVP
 40
0.0
  9
$DIMTIX
 70
     0
  9
$DIMSOXD
 70
     0
  9
$DIMSAH
 70
     0
  9
$DIMBLK1
  1

  9
$DIMBLK2
  1

  9
$DIMSTYLE
  2
ISO-25
  9
$DIMCLRD
 70
     0
  9
$DIMCLRE
 70
     0
  9
$DIMCLRT
 70
     0
  9
$DIMTFAC
 40
1.0
  9
$DIMGAP
 40
1.524
  9
$DIMJUST
 70
     0
  9
$DIMSD1
 70
     0
  9
$DIMSD2
 70
     0
  9
$DIMTOLJ
 70
     0
  9
$DIMTZIN
 70
     0
  9
$DIMALTZ
 70
     0
  9
$DIMALTTZ
 70
     0
  9
$DIMUPT
 70
     0
  9
$DIMDEC
 70
     3
  9
$DIMTDEC
 70
     3
  9
$DIMALTU
 70
     2
  9
$DIMALTTD
 70
     3
  9
$DIMTXSTY
  7
Standard
  9
$DIMAUNIT
 70
     0
  9
$DIMADEC
 70
     2
  9
$DIMALTRND
 40
0.0
  9
$DIMAZIN
 70
     0
  9
$DIMDSEP
 70
    44
  9
$DIMATFIT
 70
     3
  9
$DIMFRAC
 70
     0
  9
$DIMLDRBLK
  1

  9
$DIMLUNIT
 70
     2
  9
$DIMLWD
 70
    -2
  9
$DIMLWE
 70
    -2
  9
$DIMTMOVE
 70
     0
  9
$LUNITS
 70
     2
  9
$LUPREC
 70
     2
  9
$SKETCHINC
 40
1.0
  9
$FILLETRAD
 40
10.0
  9
$AUNITS
 70
     0
  9
$AUPREC
 70
     2
  9
$MENU
  1
.
  9
$ELEVATION
 40
0.0
  9
$PELEVATION
 40
0.0
  9
$THICKNESS
 40
0.0
  9
$LIMCHECK
 70
     0
  9
$CHAMFERA
 40
10.0
  9
$CHAMFERB
 40
10.0
  9
$CHAMFERC
 40
20.0
  9
$CHAMFERD
 40
0.0
  9
$SKPOLY
 70
     0
  9
$TDCREATE
 40
2456450.17351456
  9
$TDUCREATE
 40
2456450.381847893
  9
$TDUPDATE
 40
2456450.173514734
  9
$TDUUPDATE
 40
2456450.381848067
  9
$TDINDWG
 40
0.0000000116
  9
$TDUSRTIMER
 40
0.0000000116
  9
$USRTIMER
 70
     1
  9
$ANGBASE
 50
0.0
  9
$ANGDIR
 70
     0
  9
$PDMODE
 70
     0
  9
$PDSIZE
 40
-1.0
  9
$PLINEWID
 40
0.0
  9
$SPLFRAME
 70
     0
  9
$SPLINETYPE
 70
     6
  9
$SPLINESEGS
 70
     8
  9
$HANDSEED
  5
6B
  9
$SURFTAB1
 70
     6
  9
$SURFTAB2
 70
     6
  9
$SURFTYPE
 70
     6
  9
$SURFU
 70
     6
  9
$SURFV
 70
     6
  9
$UCSBASE
  2

  9
$UCSNAME
  2

  9
$UCSORG
 10
0.0
 20
0.0
 30
0.0
  9
$UCSXDIR
 10
1.0
 20
0.0
 30
0.0
  9
$UCSYDIR
 10
0.0
 20
1.0
 30
0.0
  9
$UCSORTHOREF
  2

  9
$UCSORTHOVIEW
 70
     0
  9
$UCSORGTOP
 10
0.0
 20
0.0
 30
0.0
  9
$UCSORGBOTTOM
 10
0.0
 20
0.0
 30
0.0
  9
$UCSORGLEFT
 10
0.0
 20
0.0
 30
0.0
  9
$UCSORGRIGHT
 10
0.0
 20
0.0
 30
0.0
  9
$UCSORGFRONT
 10
0.0
 20
0.0
 30
0.0
  9
$UCSORGBACK
 10
0.0
 20
0.0
 30
0.0
  9
$PUCSBASE
  2

  9
$PUCSNAME
  2

  9
$PUCSORG
 10
0.0
 20
0.0
 30
0.0
  9
$PUCSXDIR
 10
1.0
 20
0.0
 30
0.0
  9
$PUCSYDIR
 10
0.0
 20
1.0
 30
0.0
  9
$PUCSORTHOREF
  2

  9
$PUCSORTHOVIEW
 70
     0
  9
$PUCSORGTOP
 10
0.0
 20
0.0
 30
0.0
  9
$PUCSORGBOTTOM
 10
0.0
 20
0.0
 30
0.0
  9
$PUCSORGLEFT
 10
0.0
 20
0.0
 30
0.0
  9
$PUCSORGRIGHT
 10
0.0
 20
0.0
 30
0.0
  9
$PUCSORGFRONT
 10
0.0
 20
0.0
 30
0.0
  9
$PUCSORGBACK
 10
0.0
 20
0.0
 30
0.0
  9
$USERI1
 70
     0
  9
$USERI2
 70
     0
  9
$USERI3
 70
     0
  9
$USERI4
 70
     0
  9
$USERI5
 70
     0
  9
$USERR1
 40
0.0
  9
$USERR2
 40
0.0
  9
$USERR3
 40
0.0
  9
$USERR4
 40
0.0
  9
$USERR5
 40
0.0
  9
$WORLDVIEW
 70
     1
  9
$SHADEDGE
 70
     3
  9
$SHADEDIF
 70
    70
  9
$TILEMODE
 70
     1
  9
$MAXACTVP
 70
    64
  9
$PINSBASE
 10
0.0
 20
0.0
 30
0.0
  9
$PLIMCHECK
 70
     0
  9
$PEXTMIN
 10
1.0000000000E+20
 20
1.0000000000E+20
 30
1.0000000000E+20
  9
$PEXTMAX
 10
-1.0000000000E+20
 20
-1.0000000000E+20
 30
-1.0000000000E+20
  9
$PLIMMIN
 10
0.0
 20
0.0
  9
$PLIMMAX
 10
420.0
 20
297.0
  9
$UNITMODE
 70
     0
  9
$VISRETAIN
 70
     1
  9
$PLINEGEN
 70
     0
  9
$PSLTSCALE
 70
     1
  9
$TREEDEPTH
 70
  3020
  9
$CMLSTYLE
  2
Standard
  9
$CMLJUST
 70
     0
  9
$CMLSCALE
 40
20.0
  9
$PROXYGRAPHICS
 70
     1
  9
$MEASUREMENT
 70
     1
  9
$CELWEIGHT
370
    -1
  9
$ENDCAPS
280
     0
  9
$JOINSTYLE
280
     0
  9
$LWDISPLAY
290
     1
  9
$INSUNITS
 70
     4
  9
$HYPERLINKBASE
  1

  9
$STYLESHEET
  1

  9
$XEDIT
290
     1
  9
$CEPSNTYPE
380
     0
  9
$PSTYLEMODE
290
     1
  9
$FINGERPRINTGUID
  2
{E8A361F5-E8EA-4226-B98C-EEC0FD7550A2}
  9
$VERSIONGUID
  2
{FAEB1C32-E019-11D5-929B-00C0DF256EC4}
  9
$EXTNAMES
290
     1
  9
$PSVPSCALE
 40
0.0
  9
$OLESTARTUP
290
     0
  0
ENDSEC
  0
SECTION
  2
CLASSES
  0
CLASS
  1
ACDBDICTIONARYWDFLT
  2
AcDbDictionaryWithDefault
  3
ObjectDBX Classes
 90
        0
280
     0
281
     0
  0
CLASS
  1
VISUALSTYLE
  2
AcDbVisualStyle
  3
ObjectDBX Classes
 90
     4095
280
     0
281
     0
  0
CLASS
  1
MATERIAL
  2
AcDbMaterial
  3
ObjectDBX Classes
 90
     1153
280
     0
281
     0
  0
CLASS
  1
ACDBPLACEHOLDER
  2
AcDbPlaceHolder
  3
ObjectDBX Classes
 90
        0
280
     0
281
     0
  0
CLASS
  1
LAYOUT
  2
AcDbLayout
  3
ObjectDBX Classes
 90
        0
280
     0
281
     0
  0
ENDSEC
  0
SECTION
  2
TABLES
  0
TABLE
  2
VPORT
  5
8
330
0
100
AcDbSymbolTable
 70
     1
  0
VPORT
  5
29
330
8
100
AcDbSymbolTableRecord
100
AcDbViewportTableRecord
  2
*Active
 70
     0
 10
0.0
 20
0.0
 11
1.0
 21
1.0
 12
139.7
 22
107.95
 13
0.0
 23
0.0
 14
10.0
 24
10.0
 15
10.0
 25
10.0
 16
0.0
 26
0.0
 36
1.0
 17
0.0
 27
0.0
 37
0.0
 40
215.9
 41
1.2941176471
 42
50.0
 43
0.0
 44
0.0
 50
0.0
 51
0.0
 71
     0
 72
  2000
 73
     1
 74
     3
 75
     0
 76
     0
 77
     0
 78
     0
281
     0
 65
     1
110
0.0
120
0.0
130
0.0
111
1.0
121
0.0
131
0.0
112
0.0
122
1.0
132
0.0
 79
     0
146
0.0
  0
ENDTAB
  0
TABLE
  2
LTYPE
  5
5
330
0
100
AcDbSymbolTable
 70
     6
  0
LTYPE
  5
14
330
5
100
AcDbSymbolTableRecord
100
AcDbLinetypeTableRecord
  2
ByBlock
 70
     0
  3

 72
    65
 73
     0
 40
0.0
  0
LTYPE
  5
15
330
5
100
AcDbSymbolTableRecord
100
AcDbLinetypeTableRecord
  2
ByLayer
 70
     0
  3

 72
    65
 73
     0
 40
0.0
  0
LTYPE
  5
16
330
5
100
AcDbSymbolTableRecord
100
AcDbLinetypeTableRecord
  2
Continuous
 70
     0
  3
Solid line
 72
    65
 73
     0
 40
0.0
  0
LTYPE
  5
3F
330
5
100
AcDbSymbolTableRecord
100
AcDbLinetypeTableRecord
  2
HIDDEN
 70
     0
  3
Hidden __ __ __ __ __ __ __ __ __ __ __ __ __ __
 72
    65
 73
     2
 40
1.905
 49
1.27
 74
     0
 49
-0.635
 74
     0
  0
LTYPE
  5
40
330
5
100
AcDbSymbolTableRecord
100
AcDbLinetypeTableRecord
  2
PHANTOM
 70
     0
  3
Phantom ______  __  __  ______  __  __  ______
 72
    65
 73
     6
 40
12.7
 49
6.35
 74
     0
 49
-1.27
 74
     0
 49
1.27
 74
     0
 49
-1.27
 74
     0
 49
1.27
 74
     0
 49
-1.27
 74
     0
  0
LTYPE
  5
41
330
5
100
AcDbSymbolTableRecord
100
AcDbLinetypeTableRecord
  2
CENTER
 70
     0
  3
Center ____ _ ____ _ ____ _ ____ _ ____ _ ____
 72
    65
 73
     4
 40
10.16
 49
6.35
 74
     0
 49
-1.27
 74
     0
 49
1.27
 74
     0
 49
-1.27
 74
     0
  0
LTYPE
  5
42
330
5
100
AcDbSymbolTableRecord
100
AcDbLinetypeTableRecord
  2
CENTERX2
 70
     0
  3
Center (2x) ________  __  ________  __  _____
 72
    65
 73
     4
 40
20.32
 49
12.7
 74
     0
 49
-2.54
 74
     0
 49
2.54
 74
     0
 49
-2.54
 74
     0
  0
LTYPE
  5
43
330
5
100
AcDbSymbolTableRecord
100
AcDbLinetypeTableRecord
  2
DOT2
 70
     0
  3
Dot (.5x) ........................................
 72
    65
 73
     2
 40
0.635
 49
0.0
 74
     0
 49
-0.635
 74
     0
  0
ENDTAB
  0
TABLE
  2
LAYER
  5
2
330
0
100
AcDbSymbolTable
 70
     1
  0
LAYER
  5
10
330
2
100
AcDbSymbolTableRecord
100
AcDbLayerTableRecord
  2
0
 70
     0
 62
     7
  6
Continuous
370
    -3
390
F
  0
ENDTAB
  0
TABLE
  2
STYLE
  5
3
330
0
100
AcDbSymbolTable
 70
     2
  0
STYLE
  5
11
330
3
100
AcDbSymbolTableRecord
100
AcDbTextStyleTableRecord
  2
Standard
 70
     0
 40
0.0
 41
1.0
 50
0.0
 71
     0
 42
3.5
  3
txt
  4

  0
STYLE
  5
68
330
3
100
AcDbSymbolTableRecord
100
AcDbTextStyleTableRecord
  2
SLDTEXTSTYLE0
 70
     0
 40
0.0
 41
0.7
 50
0.0
 71
     0
 42
0.2
  3
TXT
  4

  0
ENDTAB
  0
TABLE
  2
VIEW
  5
6
330
0
100
AcDbSymbolTable
 70
     0
  0
ENDTAB
  0
TABLE
  2
UCS
  5
7
330
0
100
AcDbSymbolTable
 70
     0
  0
ENDTAB
  0
TABLE
  2
APPID
  5
9
330
0
100
AcDbSymbolTable
 70
     1
  0
APPID
  5
12
330
9
100
AcDbSymbolTableRecord
100
AcDbRegAppTableRecord
  2
ACAD
 70
     0
  0
ENDTAB
  0
TABLE
  2
DIMSTYLE
  5
A
330
0
100
AcDbSymbolTable
 70
     1
100
AcDbDimStyleTable
  0
DIMSTYLE
105
27
330
A
100
AcDbSymbolTableRecord
100
AcDbDimStyleTableRecord
  2
ISO-25
 70
     0
 41
2.5
 42
0.625
 43
3.75
 44
1.25
 73
     0
 74
     0
 77
     1
 78
     8
140
2.5
141
2.5
143
0.0393700787
147
0.625
171
     3
172
     1
178
     0
271
     2
272
     2
274
     3
278
    44
283
     0
284
     8
340
11
  0
ENDTAB
  0
TABLE
  2
BLOCK_RECORD
  5
1
330
0
100
AcDbSymbolTable
 70
     1
  0
BLOCK_RECORD
  5
1F
330
1
100
AcDbSymbolTableRecord
100
AcDbBlockTableRecord
  2
*Model_Space
340
22
  0
BLOCK_RECORD
  5
1B
330
1
100
AcDbSymbolTableRecord
100
AcDbBlockTableRecord
  2
*Paper_Space
340
1E
  0
BLOCK_RECORD
  5
23
330
1
100
AcDbSymbolTableRecord
100
AcDbBlockTableRecord
  2
*Paper_Space0
340
26
  0
ENDTAB
  0
ENDSEC
  0
SECTION
  2
BLOCKS
  0
BLOCK
  5
20
330
1F
100
AcDbEntity
  8
0
100
AcDbBlockBegin
  2
*Model_Space
 70
     0
 10
0.0
 20
0.0
 30
0.0
  3
*Model_Space
  1

  0
ENDBLK
  5
21
330
1F
100
AcDbEntity
  8
0
100
AcDbBlockEnd
  0
BLOCK
  5
1C
330
1B
100
AcDbEntity
 67
     1
  8
0
100
AcDbBlockBegin
  2
*Paper_Space
 70
     0
 10
0.0
 20
0.0
 30
0.0
  3
*Paper_Space
  1

  0
ENDBLK
  5
1D
330
1B
100
AcDbEntity
 67
     1
  8
0
100
AcDbBlockEnd
  0
BLOCK
  5
24
330
23
100
AcDbEntity
  8
0
100
AcDbBlockBegin
  2
*Paper_Space0
 70
     0
 10
0.0
 20
0.0
 30
0.0
  3
*Paper_Space0
  1

  0
ENDBLK
  5
25
330
23
100
AcDbEntity
  8
0
100
AcDbBlockEnd
  0
ENDSEC
  0
SECTION
  2
ENTITIES
  0
LINE
  5
44
330
1F
100
AcDbEntity
  8
0
  6
Continuous
 62
     7
370
    15
100
AcDbLine
 10
73.1161196628
 20
17.7717800684
 30
0.0
 11
48.6326632152
 21
60.1783705806
 31
0.0
  0
LINE
  5
45
330
1F
100
AcDbEntity
  8
0
  6
Continuous
 62
     7
370
    15
100
AcDbLine
 10
48.6326632152
 20
60.1783705806
 30
0.0
 11
45.8830325581
 21
58.5908705806
 31
0.0
  0
LINE
  5
46
330
1F
100
AcDbEntity
  8
0
  6
Continuous
 62
     7
370
    15
100
AcDbLine
 10
45.8830325581
 20
58.5908705806
 30
0.0
 11
39.5330325581
 21
69.5893932087
 31
0.0
  0
LINE
  5
47
330
1F
100
AcDbEntity
  8
0
  6
Continuous
 62
     7
370
    15
100
AcDbLine
 10
39.5330325581
 20
69.5893932087
 30
0.0
 11
42.2826632152
 21
71.1768932087
 31
0.0
  0
LINE
  5
48
330
1F
100
AcDbEntity
  8
0
  6
Continuous
 62
     7
370
    15
100
AcDbLine
 10
42.2826632152
 20
71.1768932087
 30
0.0
 11
17.7992067675
 21
113.5834837209
 31
0.0
  0
LINE
  5
49
330
1F
100
AcDbEntity
  8
0
  6
Continuous
 62
     7
370
    15
100
AcDbLine
 10
42.2826632152
 20
155.9900742332
 30
0.0
 11
17.7992067675
 21
113.5834837209
 31
0.0
  0
LINE
  5
4A
330
1F
100
AcDbEntity
  8
0
  6
Continuous
 62
     7
370
    15
100
AcDbLine
 10
42.2826632152
 20
155.9900742332
 30
0.0
 11
39.5330325581
 21
157.5775742332
 31
0.0
  0
LINE
  5
4B
330
1F
100
AcDbEntity
  8
0
  6
Continuous
 62
     7
370
    15
100
AcDbLine
 10
39.5330325581
 20
157.5775742332
 30
0.0
 11
45.8830325581
 21
168.5760968612
 31
0.0
  0
LINE
  5
4C
330
1F
100
AcDbEntity
  8
0
  6
Continuous
 62
     7
370
    15
100
AcDbLine
 10
45.8830325581
 20
168.5760968612
 30
0.0
 11
48.6326632152
 21
166.9885968612
 31
0.0
  0
LINE
  5
4D
330
1F
100
AcDbEntity
  8
0
  6
Continuous
 62
     7
370
    15
100
AcDbLine
 10
73.1161196628
 20
209.3951873735
 30
0.0
 11
48.6326632152
 21
166.9885968612
 31
0.0
  0
LINE
  5
4E
330
1F
100
AcDbEntity
  8
0
  6
Continuous
 62
     7
370
    15
100
AcDbLine
 10
73.1161196628
 20
209.3951873735
 30
0.0
 11
122.0830325581
 21
209.3951873735
 31
0.0
  0
LINE
  5
4F
330
1F
100
AcDbEntity
  8
0
  6
Continuous
 62
     7
370
    15
100
AcDbLine
 10
122.0830325581
 20
209.3951873735
 30
0.0
 11
122.0830325581
 21
212.5701873735
 31
0.0
  0
LINE
  5
50
330
1F
100
AcDbEntity
  8
0
  6
Continuous
 62
     7
370
    15
100
AcDbLine
 10
122.0830325581
 20
212.5701873735
 30
0.0
 11
134.7830325581
 21
212.5701873735
 31
0.0
  0
LINE
  5
51
330
1F
100
AcDbEntity
  8
0
  6
Continuous
 62
     7
370
    15
100
AcDbLine
 10
134.7830325581
 20
212.5701873735
 30
0.0
 11
134.7830325581
 21
209.3951873735
 31
0.0
  0
LINE
  5
52
330
1F
100
AcDbEntity
  8
0
  6
Continuous
 62
     7
370
    15
100
AcDbLine
 10
134.7830325581
 20
209.3951873735
 30
0.0
 11
183.7499454535
 21
209.3951873735
 31
0.0
  0
LINE
  5
53
330
1F
100
AcDbEntity
  8
0
  6
Continuous
 62
     7
370
    15
100
AcDbLine
 10
208.2334019011
 20
166.9885968612
 30
0.0
 11
183.7499454535
 21
209.3951873735
 31
0.0
  0
LINE
  5
54
330
1F
100
AcDbEntity
  8
0
  6
Continuous
 62
     7
370
    15
100
AcDbLine
 10
208.2334019011
 20
166.9885968612
 30
0.0
 11
210.9830325581
 21
168.5760968612
 31
0.0
  0
LINE
  5
55
330
1F
100
AcDbEntity
  8
0
  6
Continuous
 62
     7
370
    15
100
AcDbLine
 10
210.9830325581
 20
168.5760968612
 30
0.0
 11
217.3330325581
 21
157.5775742332
 31
0.0
  0
LINE
  5
56
330
1F
100
AcDbEntity
  8
0
  6
Continuous
 62
     7
370
    15
100
AcDbLine
 10
217.3330325581
 20
157.5775742332
 30
0.0
 11
214.5834019011
 21
155.9900742332
 31
0.0
  0
LINE
  5
57
330
1F
100
AcDbEntity
  8
0
  6
Continuous
 62
     7
370
    15
100
AcDbLine
 10
239.0668583488
 20
113.5834837209
 30
0.0
 11
214.5834019011
 21
155.9900742332
 31
0.0
  0
SPLINE
  5
58
330
1F
100
AcDbEntity
  8
0
  6
Continuous
 62
     7
370
    15
100
AcDbSpline
210
0.0
220
0.0
230
1.0
 70
     8
 71
     3
 72
     8
 73
     4
 74
     0
 42
0.00000001
 43
0.00000001
 12
1.0
 22
0.0
 32
0.0
 13
1.0
 23
0.0
 33
0.0
 40
0.0
 40
0.0
 40
0.0
 40
0.0
 40
1.0
 40
1.0
 40
1.0
 40
1.0
 10
168.3348276806051
 20
137.9665369995661
 30
0.0
 10
166.3696647229044
 20
136.21972548161
 30
0.0
 10
162.0467785793647
 20
135.1724942739925
 30
0.0
 10
160.0625416044852
 20
135.6481572309667
 30
0.0
  0
ARC
  5
59
330
1F
100
AcDbEntity
  8
0
  6
Continuous
 62
     7
370
    15
100
AcDbCircle
 10
156.9887600909
 20
135.648157231
 30
0.0
 40
3.073781513609618
100
AcDbArc
 50
24.8295978616
 51
0.0
  0
SPLINE
  5
5A
330
1F
100
AcDbEntity
  8
0
  6
Continuous
 62
     7
370
    15
100
AcDbSpline
210
0.0
220
0.0
230
1.0
 70
     8
 71
     3
 72
     8
 73
     4
 74
     0
 42
0.00000001
 43
0.00000001
 12
1.0
 22
0.0
 32
0.0
 13
1.0
 23
0.0
 33
0.0
 40
0.0
 40
0.0
 40
0.0
 40
0.0
 40
1.0
 40
1.0
 40
1.0
 40
1.0
 10
159.7784033217201
 20
136.9389025342747
 30
0.0
 10
161.1779772519757
 20
136.3194181900304
 30
0.0
 10
165.7340011111003
 20
137.2785088532655
 30
0.0
 10
167.4836901883498
 20
139.3893132959567
 30
0.0
  0
SPLINE
  5
5B
330
1F
100
AcDbEntity
  8
0
  6
Continuous
 62
     7
370
    15
100
AcDbSpline
210
0.0
220
0.0
230
1.0
 70
     8
 71
     3
 72
    20
 73
    16
 74
     0
 42
0.00000001
 43
0.00000001
 12
1.0
 22
0.0
 32
0.0
 13
1.0
 23
0.0
 33
0.0
 40
0.0
 40
0.0
 40
0.0
 40
0.0
 40
0.0347409057688185
 40
0.0766960513906868
 40
0.1206511911266077
 40
0.1532359314366492
 40
0.1857070773305717
 40
0.2293724887522438
 40
0.2873199977641933
 40
0.363266657501186
 40
0.4578749978870106
 40
0.6085495395082701
 40
0.77984154478955
 40
0.8749382984287842
 40
0.9791743879538055
 40
0.9791743879538055
 40
0.9791743879538055
 40
0.9791743879538055
 10
167.4836901883498
 20
139.3893132959568
 30
0.0
 10
166.858577187602
 20
140.1295692425342
 30
0.0
 10
162.5776450421051
 20
145.6648922948244
 30
0.0
 10
155.6123978727074
 20
148.798711028533
 30
0.0
 10
147.8597674140679
 20
147.1853974883577
 30
0.0
 10
140.4108918873664
 20
146.1355742499618
 30
0.0
 10
134.9117079488145
 20
151.4653805964725
 30
0.0
 10
130.2731078287757
 20
158.6339578156662
 30
0.0
 10
121.9412065556533
 20
166.906927558769
 30
0.0
 10
108.1408949427898
 20
173.4862564407879
 30
0.0
 10
86.71287613874043
 20
172.9474143198437
 30
0.0
 10
60.82956778329894
 20
162.1377826560581
 30
0.0
 10
44.67292416770717
 20
137.2478417392882
 30
0.0
 10
45.70546981338759
 20
112.2622133235284
 30
0.0
 10
53.7630546559536
 20
100.8932829327499
 30
0.0
 10
60.86908321651832
 20
99.03294311940326
 30
0.0
  0
SPLINE
  5
5C
330
1F
100
AcDbEntity
  8
0
  6
Continuous
 62
     7
370
    15
100
AcDbSpline
210
0.0
220
0.0
230
1.0
 70
     8
 71
     3
 72
    36
 73
    32
 74
     0
 42
0.00000001
 43
0.00000001
 12
1.0
 22
0.0
 32
0.0
 13
1.0
 23
0.0
 33
0.0
 40
0.0
 40
0.0
 40
0.0
 40
0.0
 40
0.1107188058333075
 40
0.1867344736356207
 40
0.2722499892326152
 40
0.283390415259048
 40
0.3407072135910523
 40
0.3525572076544634
 40
0.3919570723573101
 40
0.4513844681354233
 40
0.4961524749489847
 40
0.5626976168544237
 40
0.5821618680344318
 40
0.5925500741084647
 40
0.6148970314910873
 40
0.6419455391632465
 40
0.6803354246104546
 40
0.702160083332963
 40
0.729787826577253
 40
0.7585088702621878
 40
0.7708136535698566
 40
0.7886806761124473
 40
0.815187635218003
 40
0.8458373042506845
 40
0.8776650485939429
 40
0.922365770689054
 40
0.9347206545102409
 40
0.9476454900773821
 40
0.950834080548342
 40
0.9666065592198393
 40
1.0
 40
1.0
 40
1.0
 40
1.0
 10
60.86908321651832
 20
99.03294311940326
 30
0.0
 10
64.7349003089514
 20
97.33987093698317
 30
0.0
 10
68.78519521519426
 20
91.5457073381508
 30
0.0
 10
72.4448359580563
 20
82.20475150550321
 30
0.0
 10
72.80542801374162
 20
75.81443511688524
 30
0.0
 10
71.58356357002094
 20
70.09386117302338
 30
0.0
 10
67.53278551577809
 20
69.93391918958392
 30
0.0
 10
65.94476981369722
 20
65.4279552918736
 30
0.0
 10
72.61110312943691
 20
67.03355959646373
 30
0.0
 10
76.02676219947996
 20
63.21409903842448
 30
0.0
 10
80.5268610043457
 20
58.55983338974877
 30
0.0
 10
83.25837197633028
 20
55.66265744592441
 30
0.0
 10
84.41420939855662
 20
50.65740450690676
 30
0.0
 10
86.32556604356324
 20
52.22834733485085
 30
0.0
 10
86.14785139955565
 20
54.57634778187494
 30
0.0
 10
86.02523049182544
 20
57.36328964284708
 30
0.0
 10
83.6874608297765
 20
62.09855318877145
 30
0.0
 10
87.98012910556862
 20
61.19326299101777
 30
0.0
 10
89.99734338634937
 20
59.41245618626882
 30
0.0
 10
92.46517375757588
 20
58.8049655234116
 30
0.0
 10
94.66733111415526
 20
58.07972874961508
 30
0.0
 10
96.3586597747679
 20
60.20386871058339
 30
0.0
 10
94.50914713890415
 20
62.99270597514736
 30
0.0
 10
92.04220244134251
 20
64.26243562517367
 30
0.0
 10
87.10452636823278
 20
67.32391773880198
 30
0.0
 10
91.97053855331697
 20
67.4314312465009
 30
0.0
 10
96.19710908911219
 20
65.76311724745403
 30
0.0
 10
96.08612668186417
 20
67.34196204805856
 30
0.0
 10
95.41593783896899
 20
68.40507240507002
 30
0.0
 10
93.11289841547975
 20
69.93138585374363
 30
0.0
 10
90.23033361101534
 20
70.46992278208486
 30
0.0
 10
88.17681539704294
 20
70.89492956230626
 30
0.0
  0
SPLINE
  5
5D
330
1F
100
AcDbEntity
  8
0
  6
Continuous
 62
     7
370
    15
100
AcDbSpline
210
0.0
220
0.0
230
1.0
 70
     8
 71
     3
 72
    73
 73
    69
 74
     0
 42
0.00000001
 43
0.00000001
 12
1.0
 22
0.0
 32
0.0
 13
1.0
 23
0.0
 33
0.0
 40
0.0
 40
0.0
 40
0.0
 40
0.0
 40
0.0108843584316413
 40
0.0214156017704927
 40
0.0257978041844437
 40
0.053389977153794
 40
0.0792223428224792
 40
0.1094633946953054
 40
0.1147876184338145
 40
0.1324645802075693
 40
0.1476065780450287
 40
0.1523593223939902
 40
0.1565911268018171
 40
0.1678297309231329
 40
0.1843136936118771
 40
0.1917927085695816
 40
0.2025129463130213
 40
0.2145265940724896
 40
0.2358306951286346
 40
0.2574431369456935
 40
0.2640496521832978
 40
0.2679008734494006
 40
0.2719067703348259
 40
0.2807271529227435
 40
0.2891402024168938
 40
0.2989513555031263
 40
0.3100821637473195
 40
0.321854859260121
 40
0.3258879659021037
 40
0.3303692116431955
 40
0.3386579940878451
 40
0.348680415835537
 40
0.358096931270571
 40
0.3622526201895122
 40
0.3666945338474821
 40
0.3695180960152895
 40
0.3824066655173299
 40
0.4010347867722103
 40
0.4186606383348727
 40
0.4243123538370581
 40
0.428794879774254
 40
0.4352920484142433
 40
0.4377304592942634
 40
0.4629214289653342
 40
0.4699818951445386
 40
0.4890720125737938
 40
0.4929947738811699
 40
0.547638221486129
 40
0.5642616078423283
 40
0.62269217531507
 40
0.6273216146302607
 40
0.630593558862448
 40
0.6346238134474899
 40
0.6378596131068925
 40
0.6651528027416136
 40
0.6838868476835981
 40
0.733545758002505
 40
0.782420709154424
 40
0.8078674807608203
 40
0.8215897910588092
 40
0.8268130203800468
 40
0.8321552689460143
 40
0.8422397945788125
 40
0.8627240729649002
 40
0.9094210340542568
 40
0.9496063624480824
 40
0.9649333109025795
 40
1.0
 40
1.0
 40
1.0
 40
1.0
 10
88.1768153970445
 20
70.89492956230609
 30
0.0
 10
83.03268212309362
 20
71.48200338743315
 30
0.0
 10
81.49264294994889
 20
70.9816169501199
 30
0.0
 10
81.76274120487739
 20
72.75426170413398
 30
0.0
 10
81.07379071946094
 20
74.07082127079818
 30
0.0
 10
79.70044533193318
 20
77.90937507407477
 30
0.0
 10
78.86218312013538
 20
80.47956140227225
 30
0.0
 10
78.05153869283411
 20
83.07529108005056
 30
0.0
 10
77.50002441037292
 20
85.82243660531572
 30
0.0
 10
77.25106158746402
 20
88.92163268822496
 30
0.0
 10
80.07819775642795
 20
93.3999569460329
 30
0.0
 10
83.83627660667153
 20
93.69563350198429
 30
0.0
 10
83.56335032444429
 20
90.68398980506048
 30
0.0
 10
86.60440314601249
 20
88.05965593756699
 30
0.0
 10
87.26543159772017
 20
83.56111128199696
 30
0.0
 10
87.1475773135629
 20
79.50902911730599
 30
0.0
 10
82.14090960931405
 20
76.0924067634445
 30
0.0
 10
90.79111266265332
 20
77.28688027836141
 30
0.0
 10
95.48782965590699
 20
72.93491990998477
 30
0.0
 10
98.87347462274468
 20
69.44044013830256
 30
0.0
 10
103.4859400158122
 20
66.37354799084744
 30
0.0
 10
103.792752081684
 20
68.53428994593014
 30
0.0
 10
103.9525588459186
 20
70.55644465430346
 30
0.0
 10
101.5077277853188
 20
71.84862385276675
 30
0.0
 10
99.86446899948983
 20
76.15931912217832
 30
0.0
 10
104.9320710416313
 20
75.41301566249578
 30
0.0
 10
108.2357623498972
 20
74.3800455233469
 30
0.0
 10
111.0099889784606
 20
72.50319846719367
 30
0.0
 10
113.8698965591929
 20
72.80286667481877
 30
0.0
 10
113.9380610230642
 20
75.35695388089592
 30
0.0
 10
112.1183606265117
 20
76.95590181276334
 30
0.0
 10
107.1932437337067
 20
79.69489123525955
 30
0.0
 10
111.9922991771937
 20
79.31441223187588
 30
0.0
 10
113.933313533365
 20
78.85155174234038
 30
0.0
 10
115.322268430955
 20
80.4018302148976
 30
0.0
 10
112.9767590023325
 20
82.01998679423112
 30
0.0
 10
109.2181041067537
 20
82.91179912111818
 30
0.0
 10
103.2507780256931
 20
83.78390197045812
 30
0.0
 10
98.23689572443244
 20
83.54487632302698
 30
0.0
 10
94.99927030508799
 20
84.88871692940549
 30
0.0
 10
94.05027005395452
 20
86.77357650246852
 30
0.0
 10
91.62755661336743
 20
86.60811884428061
 30
0.0
 10
91.99818980257778
 20
91.16255337104282
 30
0.0
 10
91.7741307904999
 20
95.0231834390415
 30
0.0
 10
91.17068078494242
 20
101.0717387078968
 30
0.0
 10
93.83905241513668
 20
105.4150831945048
 30
0.0
 10
103.2988730093766
 20
104.4563569925475
 30
0.0
 10
111.790107585527
 20
108.9176726500516
 30
0.0
 10
126.2074054068304
 20
114.3367164617652
 30
0.0
 10
136.3776799840426
 20
115.3489202396083
 30
0.0
 10
142.7593727442874
 20
119.9459517911603
 30
0.0
 10
144.4116663823308
 20
120.115218279471
 30
0.0
 10
144.2646743673124
 20
122.0865566289507
 30
0.0
 10
149.2432206740585
 20
120.3987776291473
 30
0.0
 10
154.5432247326798
 20
122.999060934426
 30
0.0
 10
165.4651064789423
 20
117.4365369178059
 30
0.0
 10
176.1103309179165
 20
108.6179684485512
 30
0.0
 10
185.7786222003929
 20
97.25488326555235
 30
0.0
 10
191.961204073093
 20
88.54607631185112
 30
0.0
 10
194.9000554495847
 20
84.37925431008327
 30
0.0
 10
197.8515058391768
 20
82.63948770433865
 30
0.0
 10
199.8589709766428
 20
85.22601510290967
 30
0.0
 10
196.4696697821804
 20
89.02576587117059
 30
0.0
 10
193.6415993286889
 20
97.48330265896368
 30
0.0
 10
184.3636978573142
 20
107.0709048353092
 30
0.0
 10
177.0467552113979
 20
117.0865981965621
 30
0.0
 10
172.0811771860915
 20
126.2009809083079
 30
0.0
 10
169.9669435250032
 20
134.2356267777621
 30
0.0
 10
168.3348276806051
 20
137.9665369995661
 30
0.0
  0
LINE
  5
5E
330
1F
100
AcDbEntity
  8
0
  6
Continuous
 62
     7
370
    15
100
AcDbLine
 10
239.0668583488
 20
113.5834837209
 30
0.0
 11
214.5834019011
 21
71.1768932087
 31
0.0
  0
LINE
  5
5F
330
1F
100
AcDbEntity
  8
0
  6
Continuous
 62
     7
370
    15
100
AcDbLine
 10
122.0830325581
 20
17.7717800684
 30
0.0
 11
73.1161196628
 21
17.7717800684
 31
0.0
  0
LINE
  5
60
330
1F
100
AcDbEntity
  8
0
  6
Continuous
 62
     7
370
    15
100
AcDbLine
 10
122.0830325581
 20
14.5967800684
 30
0.0
 11
122.0830325581
 21
17.7717800684
 31
0.0
  0
LINE
  5
61
330
1F
100
AcDbEntity
  8
0
  6
Continuous
 62
     7
370
    15
100
AcDbLine
 10
134.7830325581
 20
14.5967800684
 30
0.0
 11
122.0830325581
 21
14.5967800684
 31
0.0
  0
LINE
  5
62
330
1F
100
AcDbEntity
  8
0
  6
Continuous
 62
     7
370
    15
100
AcDbLine
 10
134.7830325581
 20
17.7717800684
 30
0.0
 11
134.7830325581
 21
14.5967800684
 31
0.0
  0
LINE
  5
63
330
1F
100
AcDbEntity
  8
0
  6
Continuous
 62
     7
370
    15
100
AcDbLine
 10
134.7830325581
 20
17.7717800684
 30
0.0
 11
183.7499454535
 21
17.7717800684
 31
0.0
  0
LINE
  5
64
330
1F
100
AcDbEntity
  8
0
  6
Continuous
 62
     7
370
    15
100
AcDbLine
 10
208.2334019011
 20
60.1783705806
 30
0.0
 11
183.7499454535
 21
17.7717800684
 31
0.0
  0
LINE
  5
65
330
1F
100
AcDbEntity
  8
0
  6
Continuous
 62
     7
370
    15
100
AcDbLine
 10
210.9830325581
 20
58.5908705806
 30
0.0
 11
208.2334019011
 21
60.1783705806
 31
0.0
  0
LINE
  5
66
330
1F
100
AcDbEntity
  8
0
  6
Continuous
 62
     7
370
    15
100
AcDbLine
 10
217.3330325581
 20
69.5893932087
 30
0.0
 11
210.9830325581
 21
58.5908705806
 31
0.0
  0
LINE
  5
67
330
1F
100
AcDbEntity
  8
0
  6
Continuous
 62
     7
370
    15
100
AcDbLine
 10
214.5834019011
 20
71.1768932087
 30
0.0
 11
217.3330325581
 21
69.5893932087
 31
0.0
  0
MTEXT
  5
69
330
1F
100
AcDbEntity
  8
0
  6
Continuous
 62
     7
100
AcDbMText
 10
0.0
 20
10.4173632428
 30
0.0
 40
3.73507
 41
0.0
 71
     1
 72
     1
  1
SolidWorks Student Edition.
  7
SLDTEXTSTYLE0
 73
     1
 44
1.0
  0
MTEXT
  5
6A
330
1F
100
AcDbEntity
  8
0
  6
Continuous
 62
     7
100
AcDbMText
 10
0.0
 20
4.8147582428
 30
0.0
 40
3.73507
 41
0.0
 71
     1
 72
     1
  1
For Academic Use Only.
  7
SLDTEXTSTYLE0
 73
     1
 44
1.0
  0
ENDSEC
  0
SECTION
  2
OBJECTS
  0
DICTIONARY
  5
C
330
0
100
AcDbDictionary
281
     1
  3
ACAD_GROUP
350
D
  3
ACAD_LAYOUT
350
1A
  3
ACAD_MLINESTYLE
350
17
  3
ACAD_PLOTSETTINGS
350
19
  3
ACAD_PLOTSTYLENAME
350
E
  0
DICTIONARY
  5
D
102
{ACAD_REACTORS
330
C
102
}
330
C
100
AcDbDictionary
281
     1
  0
DICTIONARY
  5
1A
102
{ACAD_REACTORS
330
C
102
}
330
C
100
AcDbDictionary
281
     1
  3
Layout1
350
1E
  3
Layout2
350
26
  3
Model
350
22
  0
DICTIONARY
  5
17
102
{ACAD_REACTORS
330
C
102
}
330
C
100
AcDbDictionary
281
     1
  3
Standard
350
18
  0
DICTIONARY
  5
19
102
{ACAD_REACTORS
330
C
102
}
330
C
100
AcDbDictionary
281
     1
  0
ACDBDICTIONARYWDFLT
  5
E
102
{ACAD_REACTORS
330
C
102
}
330
C
100
AcDbDictionary
281
     1
  3
Normal
350
F
100
AcDbDictionaryWithDefault
340
F
  0
LAYOUT
  5
1E
102
{ACAD_REACTORS
330
1A
102
}
330
1A
100
AcDbPlotSettings
  1

  2
none_device
  4

  6

 40
0.0
 41
0.0
 42
0.0
 43
0.0
 44
0.0
 45
0.0
 46
0.0
 47
0.0
 48
0.0
 49
0.0
140
0.0
141
0.0
142
1.0
143
1.0
 70
   688
 72
     0
 73
     0
 74
     5
  7

 75
    16
147
1.0
148
0.0
149
0.0
100
AcDbLayout
  1
Layout1
 70
     1
 71
     1
 10
0.0
 20
0.0
 11
420.0
 21
297.0
 12
0.0
 22
0.0
 32
0.0
 14
1.0000000000E+20
 24
1.0000000000E+20
 34
1.0000000000E+20
 15
-1.0000000000E+20
 25
-1.0000000000E+20
 35
-1.0000000000E+20
146
0.0
 13
0.0
 23
0.0
 33
0.0
 16
1.0
 26
0.0
 36
0.0
 17
0.0
 27
1.0
 37
0.0
 76
     0
330
1B
  0
LAYOUT
  5
26
102
{ACAD_REACTORS
330
1A
102
}
330
1A
100
AcDbPlotSettings
  1

  2
none_device
  4

  6

 40
0.0
 41
0.0
 42
0.0
 43
0.0
 44
0.0
 45
0.0
 46
0.0
 47
0.0
 48
0.0
 49
0.0
140
0.0
141
0.0
142
1.0
143
1.0
 70
   688
 72
     0
 73
     0
 74
     5
  7

 75
    16
147
1.0
148
0.0
149
0.0
100
AcDbLayout
  1
Layout2
 70
     1
 71
     2
 10
0.0
 20
0.0
 11
0.0
 21
0.0
 12
0.0
 22
0.0
 32
0.0
 14
0.0
 24
0.0
 34
0.0
 15
0.0
 25
0.0
 35
0.0
146
0.0
 13
0.0
 23
0.0
 33
0.0
 16
1.0
 26
0.0
 36
0.0
 17
0.0
 27
1.0
 37
0.0
 76
     0
330
23
  0
LAYOUT
  5
22
102
{ACAD_REACTORS
330
1A
102
}
330
1A
100
AcDbPlotSettings
  1

  2
none_device
  4

  6

 40
0.0
 41
0.0
 42
0.0
 43
0.0
 44
0.0
 45
0.0
 46
0.0
 47
0.0
 48
0.0
 49
0.0
140
0.0
141
0.0
142
1.0
143
1.0
 70
  1712
 72
     0
 73
     0
 74
     0
  7

 75
     0
147
1.0
148
0.0
149
0.0
100
AcDbLayout
  1
Model
 70
     1
 71
     0
 10
0.0
 20
0.0
 11
279.4
 21
215.9
 12
0.0
 22
0.0
 32
0.0
 14
0.0
 24
0.0
 34
0.0
 15
279.4
 25
215.9
 35
0.0
146
0.0
 13
0.0
 23
0.0
 33
0.0
 16
1.0
 26
0.0
 36
0.0
 17
0.0
 27
1.0
 37
0.0
 76
     0
330
1F
331
29
  0
MLINESTYLE
  5
18
102
{ACAD_REACTORS
330
17
102
}
330
17
100
AcDbMlineStyle
  2
Standard
 70
     0
  3

 62
   256
 51
90.0
 52
90.0
 71
     2
 49
0.5
 62
   256
  6
BYLAYER
 49
-0.5
 62
   256
  6
BYLAYER
  0
ACDBPLACEHOLDER
  5
F
102
{ACAD_REACTORS
330
E
102
}
330
E
  0
ENDSEC
  0
EOF
